<svg width="64" height="64" viewBox="0 0 64 64" xmlns="http://www.w3.org/2000/svg">
  <defs>
    <linearGradient id="g" x1="4" y1="4" x2="60" y2="60" gradientUnits="userSpaceOnUse">
      <stop offset="0%" stop-color="#1d4ed8"/>
      <stop offset="100%" stop-color="#3b82f6"/>
    </linearGradient>
    <clipPath id="c">
      <rect x="4" y="4" width="56" height="56" rx="14"/>
    </clipPath>
  </defs>

  <!-- Shadow -->
  <rect x="6" y="7" width="56" height="56" rx="14" fill="#1d4ed8" opacity="0.12"/>

  <!-- Background -->
  <rect x="4" y="4" width="56" height="56" rx="14" fill="url(#g)"/>

  <!-- Subtle top shine -->
  <rect x="4" y="4" width="56" height="28" fill="white" opacity="0.07" clip-path="url(#c)"/>

  <!-- Browser dots -->
  <circle cx="16" cy="16" r="2" fill="white" opacity="0.4"/>
  <circle cx="23" cy="16" r="2" fill="white" opacity="0.4"/>
  <circle cx="30" cy="16" r="2" fill="white" opacity="0.4"/>

  <!-- URL bar hint -->
  <rect x="36" y="14" width="16" height="4" rx="2" fill="white" opacity="0.15"/>

  <!-- Divider -->
  <line x1="12" y1="22" x2="52" y2="22" stroke="white" stroke-width="0.5" opacity="0.15"/>

  <!-- Code lines -->
  <rect x="14" y="27" width="16" height="3.5" rx="1.75" fill="white" opacity="0.5"/>
  <rect x="34" y="27" width="12" height="3.5" rx="1.75" fill="white" opacity="0.7"/>
  <rect x="18" y="34" width="26" height="3.5" rx="1.75" fill="white" opacity="0.8"/>
  <rect x="18" y="41" width="18" height="3.5" rx="1.75" fill="white" opacity="0.65"/>
  <rect x="14" y="48" width="22" height="3.5" rx="1.75" fill="white" opacity="0.55"/>
  <rect x="40" y="48" width="2.5" height="3.5" rx="1.25" fill="#f97316" opacity="0.95"/>
</svg>
