<svg width="512" height="512" viewBox="0 0 512 512" fill="none" xmlns="http://www.w3.org/2000/svg">
  <rect width="512" height="512" rx="114" fill="#3b82f6"/>
  <path d="M142 369V142h85c21.3 0 39.1 7.1 53.3 21.3C294.4 177.5 301.5 195.3 301.5 213.3c0 14.2-3.6 26.6-10.7 37.3-7.1 10.7-16.4 18.5-28.4 23.5L313 369h-49.7l-49.7-85.3h-28.4V369H142zm42.6-127.8h42.6c7.8 0 14.2-2.5 19.2-7.5 5-5 7.5-11.4 7.5-19.2s-2.5-14.2-7.5-19.2c-5-5-11.4-7.5-19.2-7.5h-42.6v53.4z" fill="white"/>
  <path d="M341 170v198" stroke="white" stroke-width="35" stroke-linecap="round"/>
  <circle cx="341" cy="142" r="21" fill="#f97316"/>
</svg>
